<?xml version="1.0" encoding="utf-8"?>
<!-- Generator: Adobe Illustrator 27.8.0, SVG Export Plug-In . SVG Version: 6.00 Build 0)  -->
<svg version="1.1" id="Layer_1" xmlns="http://www.w3.org/2000/svg" xmlns:xlink="http://www.w3.org/1999/xlink" x="0px" y="0px"
	 width="300px" height="110px" viewBox="0 0 300 110" style="enable-background:new 0 0 300 110;" xml:space="preserve">
<style type="text/css">
	.st0{fill-rule:evenodd;clip-rule:evenodd;fill:#FFFFFF;}
	.st1{fill-rule:evenodd;clip-rule:evenodd;fill:#0A1F41;}
	.st2{fill-rule:evenodd;clip-rule:evenodd;fill:#E02A26;}
</style>
<g>
	<rect y="27.4" class="st0" width="243.7" height="82.6"/>
	<rect x="1.3" y="28.7" class="st1" width="241.2" height="80"/>
	<polygon class="st0" points="17.1,44 17.1,92.5 28.8,92.5 28.8,62.4 46.2,92.5 57.8,92.5 57.8,44 45.9,44 45.9,72.2 29.2,44 	"/>
	<polygon class="st0" points="64.6,43.9 64.6,92.5 102.6,92.5 102.5,81.8 76.7,81.8 76.7,72.1 99.4,72.1 99.4,61.8 76.7,61.8 
		76.7,54.7 101.4,54.7 101.4,43.9 	"/>
	<polygon class="st0" points="104.9,43.9 118.7,92.5 130.9,92.5 137.3,61.3 143.9,92.5 154.9,92.5 168.8,44 156.3,43.9 149.6,72.5 
		143.7,44 130.7,43.9 125.2,70.9 118.9,43.9 	"/>
	<path class="st0" d="M196.7,59.9c0,0,1.6-6-7.9-7c-6.5-0.6-7.9,3.9-6.9,5.6c2,3.5,17.1,3.5,24.3,9.6c6.2,5.2,4.7,17.1-1.9,21.5
		c-7.9,5.2-20.2,4.4-25.7,1.9c-11-5-9.2-15.8-9.2-15.8H181c0,0-0.6,7.5,8.5,7.5c9.6,0,9.6-5,7.6-7c-2.2-2.2-20.3-3-25.2-10.5
		c-3.3-5-3.8-15,5-20.3c8.8-5.3,21.9-2.7,26.7,2.2c5.7,5.9,4.8,12.3,4.8,12.3L196.7,59.9z"/>
	<polygon class="st0" points="217,0 300,0 299.9,82.5 217.1,82.5 	"/>
	<polygon class="st2" points="218.3,1.3 298.7,1.3 298.7,81.3 218.3,81.3 	"/>
	<polygon class="st0" points="226.5,17.1 246.1,17.1 246.1,66.8 234.4,66.8 234.4,28.6 226.5,28.6 	"/>
	<path class="st0" d="M279.5,39.7c3.1-2.2,5.4-4.8,5-10.9c-0.9-8.4-7.9-12.5-16.1-12.6c-8.2-0.1-14.6,4.9-15.8,12.3
		c-1,6.4,3.1,10.1,5.1,11.2c-3.9,2.1-7.5,7.7-6.8,13.8c0.7,5.7,6.6,14.3,17.8,14.1c10.3-0.2,16.7-7.3,17.4-14
		C287.2,44.5,282.4,41.4,279.5,39.7z M268.8,26.1c2.7,0,4.9,1.8,4.9,4.8c0,2.7-2.1,5.1-4.9,5.1c-2.7,0-5-2-5-5.1
		C263.9,27.8,266.5,26.1,268.8,26.1z M268.9,56.3c-3.2,0.1-5.7-2.7-5.8-5.8c0-3.3,2.3-5.7,5.7-5.7c3.2,0,5.6,2.6,5.6,5.7
		C274.4,53.6,272.3,56.2,268.9,56.3z"/>
</g>
</svg>
